<?xml version="1.0" encoding="UTF-8"?>
<svg id="Camada_2" data-name="Camada 2" xmlns="http://www.w3.org/2000/svg" viewBox="0 0 257.17 119.85">
  <defs>
    <style>
      .cls-1 {
        fill: #000;
        fill-rule: evenodd;
        stroke-width: 0px;
      }
    </style>
  </defs>
  <g id="Camada_1-2" data-name="Camada 1">
    <path class="cls-1" d="M249.2,119.17v-16.96c0-3.84-1.55-5.71-4.75-5.71-2.21,0-3.98.71-5.41,2.18v20.49h-7.97v-36.38h3.04c2.41,0,4.41,1.92,4.45,4.29.05,2.14.02,2,0,3.6,0,.69-.02,1.3-.02,1.75,2.51-1.88,5.29-2.84,8.28-2.84,1.27,0,2.48.18,3.58.54,1.1.36,2.2.96,3.26,1.79,1.08.83,1.95,2.1,2.57,3.77h0c.62,1.66.92,3.58.92,5.88v17.59h-7.97ZM220.89,119.85c-4.62,0-8.33-1.44-11.03-4.27-2.71-2.82-4.08-6.46-4.08-10.82s1.51-8.08,4.48-10.94c2.97-2.86,6.87-4.32,11.6-4.32,2.29,0,3.99.18,5.19.56l.27.08v.99c0,1.37-.53,2.65-1.49,3.61-.98.98-2.3,1.5-3.68,1.51l-.06-.38v.38c-2.59,0-4.61.71-6.16,2.17-1.53,1.43-2.31,3.48-2.31,6.09,0,2.8.83,4.9,2.46,6.25,1.65,1.38,3.69,2.08,6.07,2.08,2.05,0,3.63-.17,4.67-.51l.5-.16v6.73l-.25.09c-1.49.56-3.57.84-6.18.84ZM201.84,105.27c-.08.47-.34,1.11-.35,1.14l-.1.23h-17.37c.15,1.89.85,3.39,2.14,4.59,1.36,1.28,3.4,1.92,6.08,1.92,2.48,0,4.8-.45,6.9-1.34h.02s.65-.66.65-.66l-.02.93v5.76l-.12.19-.12.08c-2.37,1.16-5.33,1.74-8.8,1.74-2.53,0-4.78-.43-6.69-1.27-1.93-.85-3.47-2.01-4.57-3.47-1.1-1.45-1.92-3.04-2.44-4.74-.52-1.69-.78-3.5-.78-5.38,0-4.31,1.24-8,3.68-10.97,2.46-3,5.86-4.52,10.12-4.52,3.98,0,7.03,1.3,9.06,3.86h0c2,2.54,3.01,5.46,3.01,8.68,0,1.6-.04,1.8-.22,2.72l-.09.5ZM194.89,100.79c0-1.11-.41-2.21-1.25-3.36-.8-1.1-2.06-1.63-3.86-1.63-1.69,0-3.03.54-3.97,1.6-.87,1.01-1.44,2.17-1.73,3.53h8.05c1.65,0,2.41-.02,2.76-.03v-.11ZM175.71,90.02h-4.99v29.08h-3.26c-2.4,0-4.35-1.95-4.35-4.36v-24.72h-10.83v-6.53c0-.29.24-.53.53-.53h28.61l.23.23v.82c0,3.31-2.67,6.01-5.95,6.01ZM97.04,38.44v-14.03h17.67v7.33c0,3.75,3.01,6.79,6.74,6.79v-14.12h16.21c3.61,0,6.53-2.95,6.53-6.58v-.21h-48.66c-.78,0-1.56-.06-2.31-.17-7.21-1.13-12.74-7.41-12.74-14.99V0h60.98c.3,0,.59,0,.88.03.85.04,1.68.14,2.5.29.39.07.78.16,1.17.26.83.21,1.63.48,2.41.8,6.75,2.77,11.52,9.47,11.52,17.26v44.33h-38.56c-13.44,0-24.34-10.98-24.34-24.53ZM70.87,101.94c0-3.78-1.48-5.62-4.54-5.62-2.07,0-3.81.72-5.16,2.14v20.64h-7.67v-28.45h4.56c1.14,0,2.12.71,2.5,1.74,1.13-.89,2.33-1.58,3.58-2.06,1.41-.54,2.91-.82,4.46-.82,1.22,0,2.37.18,3.43.54,1.06.35,2.09.93,3.13,1.76,1.03.81,1.86,2.06,2.46,3.71.59,1.63.88,3.53.88,5.79v17.79h-7.67v-17.16ZM49.55,105.27c-.07.41-.28.95-.34,1.11l-.1.24-.3.03h-17.08c.15,1.89.85,3.39,2.14,4.59,1.36,1.28,3.4,1.92,6.07,1.92,2.49,0,4.83-.45,6.93-1.35,0,0,.05-.03.1-.05l.52-.21v6.3s-.11.19-.11.19l-.12.08c-2.37,1.16-5.33,1.74-8.8,1.74-2.52,0-4.77-.43-6.69-1.27-1.72-.76-3.13-1.76-4.18-2.99-.14-.15-.26-.31-.39-.48-1.1-1.45-1.91-3.04-2.43-4.74-.52-1.7-.79-3.51-.79-5.38,0-4.31,1.24-8,3.68-10.97,2.46-3,5.87-4.52,10.12-4.52,3.98,0,7.03,1.3,9.06,3.86h0c2,2.54,3.01,5.46,3.01,8.68,0,1.58-.04,1.8-.21,2.69l-.1.53ZM42.6,100.79c0-1.11-.41-2.21-1.25-3.36-.8-1.1-2.06-1.63-3.86-1.63-1.69,0-3.03.54-3.97,1.6-.87,1.01-1.44,2.17-1.73,3.53h8.05c1.65,0,2.41-.02,2.76-.03v-.11ZM23.42,90.02h-4.99v29.08h-3.26c-2.4,0-4.35-1.95-4.35-4.36v-24.72H0v-6.53c0-.29.24-.53.53-.53h28.83v1.05c.01,3.31-2.66,6.01-5.94,6.01ZM94.9,100.46c1.44,0,2.46.03,3.15.08v-.27c0-.39-.06-.77-.2-1.14-.14-.39-.39-.82-.72-1.29-.32-.44-.85-.79-1.6-1.07-.78-.3-1.74-.45-2.86-.45-2.71,0-5.16.53-7.3,1.58l-.55.27v-6.85l.22-.1c2.41-1.13,5.34-1.7,8.7-1.7,3.88,0,6.83,1.11,8.79,3.3,1.96,2.18,2.96,5.04,2.96,8.51v11.7c0,.9,0,1.67.03,2.32.02.5.05.93.07,1.28,0,.4-.2.55-.31.61-4.04,1.75-8.09,2.63-12.05,2.63-3.39,0-6.18-.83-8.31-2.47-.67-.52-1.25-1.13-1.72-1.81-1.02-1.47-1.53-3.34-1.53-5.55,0-3.08,1.24-5.47,3.7-7.12,2.41-1.61,5.62-2.43,9.52-2.43ZM90.38,112.57c.81.69,2.16,1.04,4.01,1.04,1.46,0,2.67-.19,3.67-.57v-6.5c-.75-.09-1.65-.13-2.76-.13-4.12,0-6.12,1.18-6.12,3.6,0,1.04.41,1.9,1.21,2.56ZM116.82,103.84c2.87-3.69,4.75-6.12,5.58-7.2-.93.02-2.45.03-4.65.03h-8.3l-.21-.28v-.18s.91-5.94.91-5.94l.21-.18.16-.02h20.66v5.49l-.07.1c-2.06,3-6.14,8.42-12.82,17.03h13.94l-.28,1.89c-.05.31-.12.61-.21.89-.73,2.28-2.82,3.8-5.2,3.8h-17.14c-.3,0-.54-.24-.54-.54v-4.41l.07-.1c1.5-2.1,4.15-5.59,7.88-10.38Z"/>
  </g>
</svg>