<?xml version="1.0" encoding="UTF-8"?>
<svg id="Camada_2" data-name="Camada 2" xmlns="http://www.w3.org/2000/svg" viewBox="0 0 78 61.87">
  <defs>
    <style>
      .cls-1 {
        fill: #000;
        fill-rule: evenodd;
        stroke-width: 0px;
      }
    </style>
  </defs>
  <g id="Camada_1-2" data-name="Camada 1">
    <path class="cls-1" d="M78,18.31v43.56h-37.85c-13.2,0-23.9-10.79-23.9-24.11v-13.78h17.35v7.2c0,3.68,2.96,6.67,6.61,6.67h0v-13.87h15.92c3.54,0,6.41-2.9,6.41-6.47v-.2H14.78c-.77,0-1.53-.06-2.27-.17C5.43,16.03,0,9.86,0,2.42V0h59.86c.3,0,.58,0,.87.03.83.04,1.65.14,2.46.29.38.07.77.15,1.14.25.81.21,1.6.47,2.37.78,6.63,2.72,11.31,9.3,11.31,16.96Z"/>
  </g>
</svg>