<?xml version="1.0" standalone="no"?>
<!DOCTYPE svg PUBLIC "-//W3C//DTD SVG 20010904//EN"
 "http://www.w3.org/TR/2001/REC-SVG-20010904/DTD/svg10.dtd">
<svg version="1.0" xmlns="http://www.w3.org/2000/svg"
 width="512.000000pt" height="512.000000pt" viewBox="0 0 512.000000 512.000000"
 preserveAspectRatio="xMidYMid meet">

<g transform="translate(0.000000,512.000000) scale(0.100000,-0.100000)"
fill="#000000" stroke="none">
<path d="M2030 4883 c-24 -9 -40 -35 -40 -65 0 -22 14 -42 61 -86 334 -312
540 -655 580 -965 10 -80 -2 -222 -20 -240 -5 -5 -22 17 -40 50 -92 173 -280
330 -464 388 -77 25 -151 32 -173 17 -6 -4 -16 -17 -23 -29 -9 -18 -5 -43 25
-140 77 -248 86 -280 91 -348 9 -112 -28 -213 -128 -354 l-39 -54 -20 49 c-36
83 -125 206 -207 285 -83 81 -223 179 -255 179 -10 0 -30 -11 -44 -26 -22 -21
-25 -31 -19 -60 18 -97 35 -258 35 -336 0 -178 -26 -287 -132 -553 -95 -237
-111 -308 -112 -505 0 -141 3 -179 23 -260 100 -405 373 -744 754 -936 l67
-34 0 -60 c0 -58 -1 -60 -25 -60 -33 0 -73 -21 -105 -55 -24 -26 -25 -31 -28
-188 -2 -147 -1 -165 17 -194 45 -72 -1 -68 751 -68 752 0 706 -4 751 68 18
29 19 47 17 194 -3 157 -4 162 -28 188 -32 34 -72 55 -105 55 -24 0 -25 2 -25
65 l0 65 83 38 c164 77 288 164 410 289 99 101 163 189 225 311 117 228 162
428 162 718 1 239 -31 428 -112 672 -42 128 -173 407 -201 430 -9 7 -31 12
-49 10 -30 -3 -41 -15 -133 -148 -55 -80 -101 -138 -102 -130 -73 427 -129
680 -184 836 -128 363 -350 590 -795 812 -136 67 -403 183 -420 181 -5 0 -16
-3 -24 -6z m475 -340 c285 -156 465 -325 570 -532 87 -173 134 -350 220 -830
58 -326 62 -346 87 -364 49 -36 67 -21 184 151 59 86 111 161 115 166 11 12
87 -150 129 -274 83 -249 115 -454 107 -690 -10 -285 -72 -494 -213 -712 -82
-128 -276 -308 -398 -370 l-41 -21 62 67 c117 124 108 63 111 729 2 384 -1
591 -8 617 -15 54 -67 119 -124 155 -61 37 -168 47 -229 21 -44 -18 -44 -18
-49 69 -5 71 -27 120 -75 168 -47 48 -96 70 -165 75 -80 6 -119 -3 -178 -43
l-52 -35 -32 25 c-81 61 -192 74 -281 30 -27 -13 -57 -30 -65 -37 -28 -24 -68
-83 -75 -111 -10 -37 -17 -39 -61 -21 -62 26 -169 16 -230 -21 -56 -35 -109
-100 -124 -153 -5 -20 -10 -126 -10 -234 0 -177 -2 -201 -21 -245 -34 -78 -49
-184 -49 -336 0 -334 68 -522 246 -685 37 -34 64 -65 61 -68 -9 -9 -118 60
-201 126 -242 193 -412 464 -460 732 -25 141 -28 194 -16 295 14 118 32 177
121 405 105 268 114 312 114 556 0 111 3 202 6 202 9 0 142 -141 167 -177 34
-48 86 -160 111 -234 18 -55 27 -69 51 -79 16 -6 38 -9 49 -5 25 8 162 188
215 282 20 37 49 102 63 143 23 68 25 86 20 185 -4 91 -12 131 -44 235 -22 69
-36 127 -31 129 16 6 131 -58 196 -110 112 -89 214 -245 227 -347 9 -66 21
-91 50 -102 35 -13 67 4 103 54 205 288 123 726 -224 1189 -85 113 -82 114 71
30z m-90 -1717 c19 -8 44 -30 55 -48 18 -30 20 -50 20 -257 0 -209 -1 -223
-17 -216 -65 28 -97 34 -170 35 l-83 0 0 198 c0 179 2 200 20 230 39 64 106
86 175 58z m444 -30 l36 -36 3 -398 c2 -370 1 -399 -16 -431 -47 -88 -181 -93
-232 -9 -19 32 -20 49 -20 428 0 378 1 396 20 428 44 72 146 81 209 18z m-855
-150 c18 -7 44 -29 56 -47 21 -28 24 -47 28 -146 l5 -113 -85 0 c-47 0 -107
-7 -134 -15 -27 -8 -53 -15 -57 -15 -5 0 -7 58 -5 129 3 145 13 170 79 203 41
22 69 22 113 4z m1245 -133 c56 -41 61 -67 61 -313 0 -252 -5 -275 -69 -317
-61 -41 -145 -22 -188 44 -16 24 -18 53 -18 274 0 235 1 249 21 276 46 62 134
79 193 36z m-849 -325 c114 -58 122 -194 17 -272 -25 -19 -45 -21 -183 -24
-151 -3 -154 -4 -174 -29 -16 -21 -20 -41 -20 -109 0 -98 11 -129 54 -144 124
-46 163 -67 218 -118 74 -69 127 -173 162 -322 26 -108 46 -140 88 -140 19 0
68 42 68 58 0 6 -13 62 -29 127 -62 243 -168 390 -338 471 -57 27 -83 45 -83
57 0 15 12 17 104 17 113 0 168 14 223 56 l33 25 26 -30 c14 -16 49 -42 79
-57 48 -23 64 -26 133 -23 79 4 89 8 178 74 9 6 20 3 36 -12 62 -58 195 -81
275 -48 19 8 37 15 39 15 2 0 4 -92 4 -205 0 -161 -3 -213 -15 -242 -9 -20
-60 -82 -115 -137 -130 -132 -139 -154 -140 -314 l0 -122 -477 2 -478 3 -5
145 c-4 101 -10 156 -21 180 -9 20 -61 80 -116 135 -135 136 -169 210 -193
420 -35 316 24 530 157 572 23 7 117 12 243 12 194 1 208 0 250 -21z m800
-1698 l0 -120 -640 0 -640 0 0 113 c0 63 3 117 7 120 3 4 291 7 640 7 l633 0
0 -120z"/>
<path d="M711 3284 c-24 -30 -24 -34 -12 -66 12 -31 217 -148 259 -148 57 0
82 69 40 107 -37 33 -220 133 -244 133 -13 0 -32 -12 -43 -26z"/>
<path d="M4245 3254 c-148 -84 -167 -108 -129 -162 26 -37 67 -28 189 42 125
72 144 96 108 144 -31 42 -58 39 -168 -24z"/>
<path d="M431 2244 c-12 -15 -21 -31 -21 -36 0 -14 21 -52 34 -60 6 -4 74 -8
152 -8 124 0 143 2 157 18 23 25 21 68 -3 92 -18 18 -33 20 -159 20 -139 0
-140 0 -160 -26z"/>
<path d="M4370 2250 c-24 -24 -26 -57 -4 -88 14 -21 22 -22 159 -22 115 0 147
3 159 15 26 27 29 56 8 84 -19 26 -21 26 -160 29 -131 2 -143 1 -162 -18z"/>
<path d="M822 1278 c-57 -33 -110 -71 -118 -84 -26 -39 5 -94 53 -94 28 0 229
111 251 138 31 39 -3 102 -55 102 -16 -1 -74 -28 -131 -62z"/>
<path d="M4120 1320 c-23 -23 -26 -59 -7 -82 21 -27 223 -138 250 -138 31 0
67 31 67 58 0 33 -30 60 -134 121 -111 65 -144 73 -176 41z"/>
</g>
</svg>
